<svg width="30" height="30" viewBox="0 0 30 30" fill="none" xmlns="http://www.w3.org/2000/svg">
<g clip-path="url(#clip0_39_332)">
<path d="M26.6261 3.59164C26.3343 3.60453 26.0496 3.68539 25.7929 3.78851C25.5386 3.89047 24.0773 4.5139 21.9187 5.43734C19.7601 6.36078 16.9546 7.56195 14.1726 8.75375C8.60971 11.1373 3.14292 13.4823 3.14292 13.4823L3.18276 13.467C3.18276 13.467 2.85229 13.5772 2.51831 13.8104C2.35073 13.9264 2.17143 14.0776 2.02378 14.2967C1.87612 14.5159 1.76831 14.8264 1.80932 15.1557C1.95229 16.31 3.14878 16.6381 3.14878 16.6381L3.15346 16.6405L8.49487 18.4686C8.63081 18.9233 10.1144 23.8756 10.4414 24.9244C10.6218 25.5045 10.7906 25.8385 10.9664 26.067C11.0542 26.1807 11.1468 26.2698 11.2488 26.3342C11.2898 26.36 11.332 26.3787 11.3742 26.3963C11.3753 26.3963 11.3753 26.3963 11.3765 26.3963C11.3812 26.3987 11.3871 26.3987 11.3917 26.401L11.3777 26.3975C11.3871 26.401 11.3976 26.408 11.407 26.4116C11.4257 26.4186 11.4374 26.4174 11.4621 26.4233C12.0738 26.6366 12.58 26.2405 12.58 26.2405L12.6011 26.2241L15.8824 23.1807L21.2074 27.3326L21.2742 27.3631C22.2058 27.7768 23.0496 27.5459 23.516 27.1662C23.9824 26.7866 24.1664 26.2967 24.1664 26.2967L24.1863 26.2451L28.0992 5.85101C28.1988 5.39515 28.214 5.00023 28.1191 4.64398C28.0242 4.28773 27.7957 3.97836 27.5074 3.80609C27.2191 3.63382 26.9179 3.57875 26.6261 3.59164ZM26.6578 4.81156C26.7761 4.8057 26.864 4.81976 26.8921 4.83617C26.9203 4.85257 26.932 4.85023 26.9589 4.95101C26.9859 5.05179 27 5.26273 26.9273 5.59437L26.9249 5.6014L23.0343 25.8772C23.025 25.8971 22.9441 26.0846 22.7589 26.2358C22.5703 26.3893 22.3605 26.5088 21.8027 26.2756L15.9796 21.7346L15.8156 21.6057L15.8121 21.6092L14.0707 20.3026L23.857 8.7889C24.0105 8.60843 24.0433 8.35531 23.9414 8.14086C23.8394 7.92757 23.6214 7.79398 23.3847 7.79984C23.271 7.80336 23.1609 7.83734 23.0671 7.90062L8.9062 17.3412L3.55659 15.5096C3.55659 15.5096 3.02573 15.2143 2.99995 15.008C2.99878 14.9963 2.99175 15.0069 3.01987 14.9659C3.048 14.9248 3.11714 14.8557 3.20386 14.7948C3.37729 14.6741 3.57651 14.6002 3.57651 14.6002L3.59643 14.5932L3.61636 14.585C3.61636 14.585 9.08315 12.2401 14.646 9.85648C17.4269 8.66468 20.2324 7.46351 22.391 6.54125C24.5484 5.61898 26.107 4.95453 26.2394 4.90179C26.3894 4.84203 26.5394 4.81742 26.6578 4.81156ZM20.1679 11.2756L12.7464 20.0073L12.7429 20.0108C12.7312 20.0248 12.7207 20.0389 12.7101 20.0541C12.6984 20.0705 12.6878 20.0869 12.6773 20.1045C12.6351 20.1748 12.6093 20.2534 12.5988 20.3354C12.5988 20.3366 12.5988 20.3389 12.5988 20.3401L11.632 24.6877C11.6156 24.6409 11.605 24.6233 11.5874 24.5682V24.567C11.2804 23.5803 9.88003 18.9092 9.68667 18.2635L20.1679 11.2756ZM13.5843 21.4381L14.9179 22.4389L12.9585 24.2553L13.5843 21.4381Z" fill="white"/>
</g>
<defs>
<clipPath id="clip0_39_332">
<rect width="30" height="30" fill="white"/>
</clipPath>
</defs>
</svg>
