<svg width="39" height="31" viewBox="0 0 39 31" fill="none" xmlns="http://www.w3.org/2000/svg">
<path d="M10.7396 4.11955C13.1759 1.7249 16.2831 0.402368 19.5 0.390869C26.0569 0.390869 31.4998 5.94776 32.0921 13.1134C35.9726 13.7385 39 17.4422 39 21.9877C39 26.9778 35.3486 30.9538 30.9246 30.9538H9.21619C4.16325 30.9538 0 26.4138 0 20.7236C0 15.8251 3.08587 11.7686 7.17112 10.7406C7.51969 8.34279 8.8725 5.95332 10.7396 4.11955ZM12.3313 6.22283C10.4861 8.03716 9.52087 10.2238 9.52087 11.9353V13.1801L8.43619 13.3162C5.031 13.7413 2.4375 16.9282 2.4375 20.7236C2.4375 24.7995 5.43562 28.1753 9.21619 28.1753H30.9246C34.0763 28.1753 36.5625 25.3636 36.5625 21.9877C36.5625 18.6092 34.0763 15.7974 30.9246 15.7974H29.7058V14.4081C29.7083 8.23998 25.1745 3.16932 19.5 3.16932C16.8672 3.18131 14.3248 4.26523 12.3313 6.22561V6.22283Z" fill="#29A28C"/>
</svg>
