<svg width="27" height="28" viewBox="0 0 27 28" fill="none" xmlns="http://www.w3.org/2000/svg">
<path d="M23.2944 3.59698C22.8894 3.25354 22.2533 3.2044 21.5956 3.46846H21.5945C20.9028 3.74602 2.01356 11.8482 1.2446 12.1792C1.10474 12.2278 -0.116743 12.6836 0.00907679 13.6988C0.121397 14.6141 1.10312 14.9931 1.223 15.0369L6.02522 16.6812C6.34382 17.7417 7.51832 21.6546 7.77806 22.4905C7.94006 23.0116 8.20412 23.6963 8.6669 23.8373C9.07298 23.9939 9.4769 23.8508 9.73826 23.6456L12.6742 20.9223L17.4138 24.6186L17.5267 24.6861C17.8485 24.8287 18.1569 24.9 18.4512 24.9C18.6785 24.9 18.8967 24.8573 19.1051 24.772C19.8152 24.4804 20.0992 23.8038 20.1289 23.7271L23.6692 5.32552C23.8852 4.34272 23.5849 3.84268 23.2944 3.59698ZM10.2604 17.3389L8.64044 21.6589L7.02044 16.2589L19.4404 7.0789L10.2604 17.3389Z" fill="black"/>
</svg>
