<svg width="28" height="29" viewBox="0 0 28 29" fill="none" xmlns="http://www.w3.org/2000/svg">
<path d="M21.9232 5.71605C19.7228 3.51455 16.7968 2.30122 13.6795 2.30005C7.25583 2.30005 2.028 7.52555 2.02567 13.9492C2.0245 16.0025 2.56117 18.0069 3.58083 19.7732L2 25.6334L8.10517 24.1902C9.80733 25.1189 11.723 25.6077 13.6737 25.6089H13.6783C20.1008 25.6089 25.3287 20.3822 25.3322 13.9597C25.3345 10.8459 24.1235 7.91872 21.9232 5.71605ZM19.381 18.113C19.1383 18.7932 17.9495 19.4489 17.4152 19.4967C16.8808 19.5457 16.3803 19.7382 13.921 18.7687C10.9612 17.602 9.09217 14.5675 8.9475 14.3739C8.80167 14.179 7.75867 12.7954 7.75867 11.3627C7.75867 9.93005 8.51117 9.22538 8.77833 8.93488C9.0455 8.64322 9.3605 8.57088 9.55533 8.57088C9.749 8.57088 9.94383 8.57088 10.113 8.57788C10.3207 8.58605 10.5505 8.59655 10.7687 9.08072C11.0277 9.65705 11.5935 11.0967 11.6658 11.2425C11.7382 11.3884 11.7872 11.5587 11.6903 11.7524C11.5935 11.946 11.5445 12.0674 11.3998 12.2377C11.254 12.408 11.0942 12.6169 10.9635 12.7475C10.8177 12.8922 10.666 13.0509 10.8352 13.3414C11.0055 13.633 11.5888 14.5862 12.4545 15.3574C13.5675 16.3491 14.5043 16.6559 14.796 16.8029C15.0877 16.9487 15.2568 16.9242 15.4272 16.7294C15.5975 16.5357 16.1552 15.88 16.3488 15.5884C16.5425 15.2967 16.7373 15.3457 17.0045 15.4425C17.2717 15.5394 18.7032 16.244 18.9937 16.3899C19.2853 16.5357 19.479 16.608 19.5513 16.7294C19.6237 16.8496 19.6237 17.4329 19.381 18.113Z" fill="black"/>
</svg>
