<svg width="306" height="123" viewBox="0 0 306 123" fill="none" xmlns="http://www.w3.org/2000/svg">
<path d="M156.189 59.5801C156.189 63.0892 155.151 65.8034 153.074 67.7227C151.012 69.6276 148.076 70.5801 144.266 70.5801H141.881V81H133.395V49.5898H144.266C148.233 49.5898 151.212 50.4564 153.203 52.1895C155.194 53.9225 156.189 56.3861 156.189 59.5801ZM141.881 63.6621H143.428C144.702 63.6621 145.712 63.304 146.457 62.5879C147.216 61.8717 147.596 60.8835 147.596 59.623C147.596 57.5033 146.421 56.4434 144.072 56.4434H141.881V63.6621ZM177.596 56.2285C178.327 56.2285 179.022 56.2858 179.68 56.4004L180.153 56.4863L179.401 64.4141C178.714 64.2422 177.761 64.1562 176.544 64.1562C174.71 64.1562 173.378 64.5788 172.548 65.4238C171.717 66.2546 171.302 67.4577 171.302 69.0332V81H162.901V56.6582H169.153L170.464 60.5469H170.872C171.574 59.2578 172.548 58.2194 173.794 57.4316C175.054 56.6296 176.322 56.2285 177.596 56.2285ZM209.015 68.7754C209.015 72.7572 207.941 75.8652 205.793 78.0996C203.658 80.3197 200.665 81.4297 196.812 81.4297C193.117 81.4297 190.173 80.291 187.982 78.0137C185.805 75.7363 184.716 72.6569 184.716 68.7754C184.716 64.8079 185.783 61.7285 187.918 59.5371C190.066 57.3314 193.074 56.2285 196.941 56.2285C199.333 56.2285 201.446 56.737 203.279 57.7539C205.112 58.7708 206.523 60.2318 207.511 62.1367C208.514 64.0273 209.015 66.2402 209.015 68.7754ZM193.246 68.7754C193.246 70.8665 193.525 72.4635 194.084 73.5664C194.642 74.6549 195.58 75.1992 196.898 75.1992C198.201 75.1992 199.118 74.6549 199.648 73.5664C200.192 72.4635 200.464 70.8665 200.464 68.7754C200.464 66.6986 200.192 65.1302 199.648 64.0703C199.104 63.0104 198.173 62.4805 196.855 62.4805C195.566 62.4805 194.642 63.0104 194.084 64.0703C193.525 65.1159 193.246 66.6842 193.246 68.7754ZM215.405 91.5703C214.717 91.5703 213.929 91.513 213.041 91.3984C212.139 91.2982 211.423 91.1764 210.893 91.0332V84.4805C211.81 84.7383 212.669 84.8672 213.471 84.8672C215.176 84.8672 216.028 83.6497 216.028 81.2148V56.6582H224.428V82.9766C224.428 85.6549 223.64 87.7533 222.065 89.2715C220.504 90.804 218.284 91.5703 215.405 91.5703ZM215.813 50.5996C215.813 49.3392 216.164 48.401 216.866 47.7852C217.567 47.1693 218.699 46.8613 220.26 46.8613C221.821 46.8613 222.96 47.1764 223.676 47.8066C224.392 48.4368 224.75 49.3678 224.75 50.5996C224.75 53.0632 223.254 54.2949 220.26 54.2949C217.295 54.2949 215.813 53.0632 215.813 50.5996ZM244.245 81.4297C240.192 81.4297 237.041 80.3555 234.792 78.207C232.558 76.0443 231.441 72.972 231.441 68.9902C231.441 64.8796 232.479 61.7285 234.556 59.5371C236.633 57.3314 239.598 56.2285 243.45 56.2285C247.117 56.2285 249.946 57.1882 251.937 59.1074C253.942 61.0124 254.945 63.7624 254.945 67.3574V71.0957H239.927C239.984 72.4564 240.478 73.5234 241.409 74.2969C242.355 75.0703 243.637 75.457 245.255 75.457C246.73 75.457 248.084 75.321 249.316 75.0488C250.562 74.7624 251.908 74.2826 253.355 73.6094V79.6465C252.037 80.3197 250.676 80.7852 249.273 81.043C247.869 81.3008 246.193 81.4297 244.245 81.4297ZM243.751 61.9434C242.763 61.9434 241.932 62.2585 241.259 62.8887C240.6 63.5046 240.213 64.4785 240.099 65.8105H247.318C247.289 64.6361 246.952 63.6979 246.308 62.9961C245.678 62.2943 244.825 61.9434 243.751 61.9434ZM272.979 81.4297C268.997 81.4297 265.975 80.3555 263.912 78.207C261.864 76.0586 260.84 72.972 260.84 68.9473C260.84 64.9082 261.95 61.7786 264.17 59.5586C266.39 57.3385 269.548 56.2285 273.645 56.2285C276.466 56.2285 279.123 56.8444 281.615 58.0762L279.145 64.2852C278.128 63.8411 277.189 63.4902 276.33 63.2324C275.471 62.9603 274.576 62.8242 273.645 62.8242C272.284 62.8242 271.231 63.3542 270.486 64.4141C269.742 65.474 269.369 66.9707 269.369 68.9043C269.369 72.8001 270.809 74.748 273.688 74.748C276.151 74.748 278.514 74.0319 280.777 72.5996V79.2812C278.615 80.7135 276.015 81.4297 272.979 81.4297ZM299.735 74.791C300.867 74.791 302.22 74.5117 303.796 73.9531V80.0762C302.664 80.5632 301.583 80.9069 300.552 81.1074C299.535 81.3223 298.339 81.4297 296.964 81.4297C294.142 81.4297 292.108 80.7422 290.862 79.3672C289.616 77.9779 288.993 75.8509 288.993 72.9863V62.9531H286.05V59.5371L289.788 56.8945L291.958 51.7812H297.458V56.6582H303.43V62.9531H297.458V72.4277C297.458 74.0033 298.217 74.791 299.735 74.791Z" fill="black"/>
<path d="M105.062 25.625H64.0625V97.375H105.062C106.6 97.375 107.625 96.35 107.625 94.8125V28.1875C107.625 26.65 106.6 25.625 105.062 25.625Z" fill="#81C784"/>
<path d="M99.9375 58.9375L89.6875 69.1875L79.4375 58.9375H87.125V43.5625H69.1875V38.4375H87.125H92.25V43.5625V58.9375H99.9375ZM74.3125 66.625L64.0625 76.875L74.3125 87.125L84.5625 76.875L74.3125 66.625Z" fill="white"/>
<path d="M69.1875 107.625L15.375 97.375V25.625L69.1875 15.375V107.625Z" fill="#43A047"/>
<path d="M43.05 43.5625H30.75V79.4375H38.4375V67.1375H42.5375C46.8938 67.1375 50.225 66.1125 52.7875 63.8062C55.35 61.5 56.6313 58.6812 56.6313 55.0938C56.375 47.4062 52.0187 43.5625 43.05 43.5625ZM41.7687 60.9875H38.4375V49.7125H41.7687C45.8687 49.7125 48.175 51.5063 48.175 55.35C48.175 59.1938 45.8687 60.9875 41.7687 60.9875Z" fill="white"/>
</svg>
